<?xml version="1.0" encoding="UTF-8" standalone="no"?>
<!-- Created with Inkscape (http://www.inkscape.org/) -->

<svg
   width="175.51118mm"
   height="206.13831mm"
   viewBox="0 0 175.51118 206.13831"
   version="1.1"
   id="svg17165"
   xmlns:inkscape="http://www.inkscape.org/namespaces/inkscape"
   xmlns:sodipodi="http://sodipodi.sourceforge.net/DTD/sodipodi-0.dtd"
   xmlns="http://www.w3.org/2000/svg"
   xmlns:svg="http://www.w3.org/2000/svg">
  <sodipodi:namedview
     id="namedview17167"
     pagecolor="#ffffff"
     bordercolor="#666666"
     borderopacity="1.0"
     inkscape:pageshadow="2"
     inkscape:pageopacity="0.0"
     inkscape:pagecheckerboard="0"
     inkscape:deskcolor="#d1d1d1"
     inkscape:document-units="mm"
     showgrid="false" />
  <defs
     id="defs17162" />
  <g
     inkscape:label="Layer 1"
     inkscape:groupmode="layer"
     id="layer1"
     transform="translate(-4.3793555)">
    <rect
       id="rl0odlx7g2"
       x="64.066406"
       y="1.0193032"
       width="38.861111"
       height="191.54494"
       stroke="#001f3f"
       stroke-width="2.03861"
       style="fill:none"
       inkscape:export-filename="/run/user/1000/gvfs/sftp:host=192.168.1.173,user=kalmer/home/kalmer/rstudio-projects/chemistry/vee-suhe-80-lahusesse-mms.svg"
       inkscape:export-xdpi="96"
       inkscape:export-ydpi="96" />
    <path
       id="sl0odmai1h"
       stroke-width="1.01931"
       stroke="#001f3f"
       d="m 64.27453,138.83825 h 38.86768"
       style="fill:none;stroke-linecap:round;stroke-linejoin:round" />
    <path
       id="ll0odmkyqa"
       stroke-width="1.01931"
       stroke="#001f3f"
       d="m 67.25601,164.10435 v 0 c 0,0 -0.0679,-0.20386 0,-0.20386 0.15576,0 0.31032,0.0938 0.42046,0.20386 0.25107,0.251 0.40638,0.5838 0.63707,0.85367 0.19512,0.22832 0.42471,0.42467 0.63707,0.63707 0.0722,0.0722 0.11763,0.2417 0.2166,0.2166 0.24891,-0.0632 0.49561,-0.2189 0.63707,-0.43321 0.15887,-0.24068 0.11347,-0.56699 0.20386,-0.84093 0.19035,-0.5768 0.45786,-1.12697 0.63707,-1.70734 0.10615,-0.34376 0.12748,-0.70893 0.2166,-1.05753 0.0555,-0.21737 0.0172,-0.53437 0.2166,-0.63707 0.13847,-0.0713 0.13463,0.28095 0.20386,0.42046 0.21108,0.42531 0.42471,0.84947 0.63707,1.27414 0.21236,0.42467 0.45319,0.83634 0.63707,1.27414 0.17371,0.41358 0.14467,0.93062 0.4332,1.27413 0.13659,0.16258 0.5201,0.17723 0.63707,0 0.23692,-0.35892 0.15404,-0.84692 0.20386,-1.27413 0.0904,-0.77532 0.0698,-1.56503 0.2166,-2.33167 0.13921,-0.72715 0.37257,-1.43633 0.63707,-2.12781 0.0909,-0.23762 0.16603,-0.63706 0.42047,-0.63706 0.35506,0 0.6026,0.38606 0.85367,0.63706 0.25106,0.25101 0.63706,0.85367 0.63706,0.85367"
       style="fill:none;stroke-linecap:round;stroke-linejoin:round" />
    <path
       id="ll0odmlqop"
       stroke-width="1.01931"
       stroke="#001f3f"
       d="m 76.59542,164.95802 v 0 c 0,0 -0.11758,-0.29777 -0.21661,-0.42047 -0.18863,-0.23367 -0.36127,-0.51819 -0.63707,-0.63706 -0.25741,-0.11098 -0.56414,-0.0444 -0.84092,0 -0.15759,0.0252 -0.29607,0.12218 -0.43321,0.20386 -0.22067,0.13136 -0.52222,0.20347 -0.63707,0.4332 -0.12535,0.25075 -0.19969,0.64421 0,0.84093 0.20272,0.19966 0.56912,0 0.85367,0 0.14016,0 0.29511,0.0627 0.42047,0 0.31757,-0.15876 0.56911,-0.42467 0.85367,-0.63707 0.28456,-0.21239 0.57576,-0.41613 0.85367,-0.63706 0.0752,-0.0598 0.20386,-0.29994 0.20386,-0.20386 0,0.22297 -0.14285,0.42262 -0.20386,0.63706 -0.0792,0.2784 -0.26233,0.55514 -0.2166,0.84093 0.0318,0.19876 0.42046,0.43321 0.42046,0.43321"
       style="fill:none;stroke-linecap:round;stroke-linejoin:round" />
    <path
       id="ll0odmmeaj"
       stroke-width="1.01931"
       stroke="#001f3f"
       d="m 84.24022,159.86148 v 0 c 0,0 -0.45279,-0.1055 -0.63706,0 -0.34922,0.20004 -0.58476,0.55424 -0.85367,0.85367 -0.36883,0.41065 -0.75877,0.81009 -1.05754,1.27413 -0.34237,0.53183 -0.77579,1.06696 -0.85366,1.6946 -0.0718,0.57859 0.18998,1.16469 0.4332,1.6946 0.12528,0.27292 0.34951,0.55042 0.63707,0.63707 0.47173,0.14206 1.00769,0.14678 1.47799,0 0.69505,-0.21686 1.33951,-0.60662 1.91121,-1.05753 0.7876,-0.62114 1.53993,-1.31504 2.1278,-2.12781 0.35368,-0.48901 0.51045,-1.10455 0.63707,-1.6946 0.0891,-0.41524 0.1669,-0.88361 0,-1.27413 -0.0881,-0.20628 -0.42712,-0.29547 -0.63707,-0.21661 -0.42405,0.1594 -0.79202,0.4866 -1.05753,0.85367 -0.66905,0.9249 -1.30652,1.89986 -1.70734,2.96874 -0.25018,0.66713 -0.2522,1.41697 -0.20386,2.12781 0.0257,0.37841 0.42046,1.05753 0.42046,1.05753"
       style="fill:none;stroke-linecap:round;stroke-linejoin:round" />
    <path
       id="ll0odmmzlx"
       stroke-width="1.01931"
       stroke="#001f3f"
       d="m 93.57963,159.22441 v 0 c 0,0 -0.41801,-0.26476 -0.63707,-0.2166 -0.46375,0.10206 -0.90964,0.33267 -1.27413,0.63706 -0.50176,0.41894 -0.97089,0.91165 -1.27414,1.49074 -0.41495,0.79238 -0.80008,1.65472 -0.84092,2.54827 -0.0307,0.67083 0.29157,1.33542 0.63706,1.91121 0.30903,0.515 0.72219,1.03727 1.27414,1.27413 0.51908,0.22272 1.15173,0.15608 1.6946,0 0.49132,-0.1413 0.91264,-0.4922 1.27413,-0.85367 0.57131,-0.57132 1.22292,-1.14889 1.49074,-1.9112 0.25764,-0.73327 0.14358,-1.56783 0,-2.33167 -0.076,-0.40441 -0.26898,-0.87355 -0.63707,-1.05753 -0.32483,-0.16246 -0.73785,0.0576 -1.07027,0.20386 -0.32188,0.14168 -0.84093,0.63706 -0.84093,0.63706"
       style="fill:none;stroke-linecap:round;stroke-linejoin:round" />
    <path
       id="ll0odmnkxj"
       stroke-width="1.01931"
       stroke="#001f3f"
       d="m 96.1279,167.28968 v 0 c 0,0 0.39545,-0.3407 0.63707,-0.42046 0.20166,-0.0665 0.43541,-0.0665 0.63707,0 0.24162,0.0798 0.52193,0.19354 0.63706,0.42046 0.0722,0.14232 -0.10193,0.31038 -0.20386,0.43321 -0.2551,0.30732 -0.52789,0.6098 -0.85367,0.84093 -0.18294,0.12983 -0.47847,0.058 -0.63706,0.2166 -0.0991,0.0991 -0.0991,0.32134 0,0.42046 0.15859,0.15863 0.41357,0.19762 0.63706,0.21661 0.63478,0.0539 1.9112,0 1.9112,0"
       style="fill:none;stroke-linecap:round;stroke-linejoin:round" />
    <rect
       id="rl0odn0kaa"
       x="140.93924"
       y="0.80702287"
       width="38.436401"
       height="191.96965"
       stroke="#0074d9"
       stroke-width="1.01931"
       style="fill:none" />
    <path
       id="sl0odn7gtb"
       stroke-width="1.01931"
       stroke="#0074d9"
       d="M 140.93922,39.45574 H 179.3809"
       style="fill:none;stroke-linecap:round;stroke-linejoin:round" />
    <path
       id="ll0odnalqy"
       stroke-width="1.01931"
       stroke="#0074d9"
       d="m 121.40674,34.99627 v 0 c 0,0 0.20386,-0.31574 0.20386,-0.21661 0,0.22298 -0.0701,0.45869 -0.20386,0.63707 -0.51255,0.68345 -1.13236,1.27936 -1.70734,1.9112 -0.84361,0.92694 -1.68688,1.85438 -2.54828,2.76487 -0.4809,0.50826 -0.98319,0.996 -1.47799,1.49074 -0.28244,0.28248 -0.64038,0.50316 -0.85367,0.84093 -0.15677,0.2482 -0.39966,0.6242 -0.2166,0.85367 0.22697,0.28452 0.70985,0.16577 1.07027,0.2166 0.6344,0.0894 1.27143,0.16972 1.9112,0.20387 0.63617,0.0339 1.27588,0.047 1.91121,0 0.28763,-0.0213 0.71193,0.0542 0.84092,-0.20387 0.16242,-0.32477 0.008,-0.77556 -0.20386,-1.07027 -0.73052,-1.01459 -1.64249,-1.89031 -2.54827,-2.75213 -0.58534,-0.55692 -1.33989,-0.91942 -1.9112,-1.49074 -0.43255,-0.43257 -0.70888,-0.99714 -1.07027,-1.49074 -0.20776,-0.28374 -0.51332,-0.51181 -0.63707,-0.84092 -0.10014,-0.2663 -0.15839,-0.61732 0,-0.85367 0.17656,-0.2635 0.54757,-0.33727 0.85367,-0.42047 0.48456,-0.13162 0.98962,-0.18475 1.49073,-0.2166 0.63579,-0.0405 1.27414,0 1.91121,0 0.42471,0 0.84943,0 1.27414,0 0.35251,0 1.05753,0 1.05753,0"
       style="fill:none;stroke-linecap:round;stroke-linejoin:round" />
    <path
       id="ll0odnbgp1"
       stroke-width="1.01931"
       stroke="#0074d9"
       d="m 128.19788,36.90747 v 0 c 0,0 -0.13139,-0.16042 -0.21661,-0.21661 -0.13,-0.0857 -0.26908,-0.16716 -0.42046,-0.20386 -0.13621,-0.033 -0.30615,-0.081 -0.42047,0 -0.40906,0.29025 -0.75068,0.67096 -1.07027,1.05754 -0.6766,0.81824 -1.37264,1.63318 -1.9112,2.54826 -0.38684,0.6572 -0.65792,1.38741 -0.84093,2.12781 -0.10192,0.41231 -0.15691,0.87954 0,1.27413 0.14646,0.36836 0.47808,0.68128 0.84093,0.84093 0.32655,0.14373 0.73706,0.12742 1.07027,0 0.62189,-0.23788 1.34786,-0.48914 1.6946,-1.05753 0.49252,-0.80742 0.42844,-1.8424 0.63707,-2.76487 0.14389,-0.63618 0.46471,-1.26038 0.42046,-1.9112 -0.0322,-0.47373 -0.34659,-0.89852 -0.63707,-1.27414 -0.21512,-0.27814 -0.52639,-0.47984 -0.84092,-0.63707 -0.12916,-0.0646 -0.28881,0 -0.43321,0 -0.0722,0 0.2166,0 0.2166,0"
       style="fill:none;stroke-linecap:round;stroke-linejoin:round" />
    <path
       id="ll0odnc13o"
       stroke-width="1.01931"
       stroke="#0074d9"
       d="m 135.20562,36.487 v 0 c 0,0 0.0398,-0.15633 0,-0.2166 -0.10918,-0.16538 -0.22227,-0.42046 -0.42047,-0.42046 -0.3833,0 -0.74441,0.21864 -1.07027,0.42046 -0.25531,0.15812 -0.55555,0.34797 -0.63707,0.63707 -0.0797,0.2826 -0.046,0.72243 0.2166,0.85367 0.44446,0.22221 1.03703,0.20271 1.49074,0 0.28962,-0.12933 0.29272,-0.5633 0.42047,-0.85367 0.15278,-0.3472 0.42046,-0.67822 0.42046,-1.05753 0,-0.31726 -0.42046,-0.85367 -0.42046,-0.85367"
       style="fill:none;stroke-linecap:round;stroke-linejoin:round" />
    <path
       id="ll0odncevc"
       stroke-width="1.01931"
       stroke="#0074d9"
       d="m 136.69636,38.39821 v 0 c 0,0 -0.57505,0.70026 -0.85368,1.05753 -0.71525,0.91699 -1.41765,1.84393 -2.1278,2.76487 -0.49178,0.6377 -0.98056,1.27783 -1.478,1.9112 -0.27982,0.35625 -0.85367,1.05753 -0.85367,1.05753"
       style="fill:none;stroke-linecap:round;stroke-linejoin:round" />
    <path
       id="ll0odncnar"
       stroke-width="1.01931"
       stroke="#0074d9"
       d="m 137.11682,44.33567 v 0 c 0,0 0.42046,-0.38262 0.42046,-0.63706 0,-0.14016 -0.2951,-0.0627 -0.42046,0 -0.31758,0.15875 -0.64131,0.35255 -0.85367,0.63706 -0.22924,0.3072 -0.3381,0.69594 -0.42047,1.07028 -0.0602,0.27381 -0.14019,0.5982 0,0.84093 0.17759,0.30744 0.49861,0.63706 0.85368,0.63706 0.41152,0 0.78703,-0.32694 1.05753,-0.63706 0.24934,-0.28592 0.38182,-0.68014 0.42046,-1.05754 0.0365,-0.35714 -0.0775,-0.72154 -0.20386,-1.05753 -0.0904,-0.24043 -0.43321,-0.63707 -0.43321,-0.63707"
       style="fill:none;stroke-linecap:round;stroke-linejoin:round" />
    <path
       id="ll0odnee3i"
       stroke-width="1.01931"
       stroke="#0074d9"
       d="m 143.90796,100.61421 v 0 c 0,0 0.27176,-0.2166 0.4332,-0.2166 0.0992,0 0.13481,0.1455 0.20386,0.2166 0.0711,0.0733 0.15247,0.13709 0.21661,0.2166 0.22088,0.27368 0.46118,0.53641 0.63707,0.84093 0.11218,0.19418 0.093,0.4499 0.2166,0.63707 0.0374,0.0567 0.15581,0.048 0.20386,0 0.24866,-0.24871 0.52536,-0.50749 0.63707,-0.84093 0.18222,-0.54393 0.14841,-1.13768 0.2166,-1.70734 0.0762,-0.63656 0.0821,-1.28433 0.2166,-1.9112 0.0796,-0.3709 0.30159,-0.69734 0.42047,-1.05754 0.0226,-0.0686 -0.0398,-0.27687 0,-0.2166 0.17472,0.26477 0.33728,0.54762 0.42046,0.85367 0.13167,0.48456 0.0866,1.00568 0.21661,1.49074 0.15622,0.58291 0.38353,1.14697 0.63706,1.6946 0.1729,0.37345 0.34607,0.76652 0.63707,1.05753 0.0991,0.0991 0.33623,0.112 0.42046,0 0.3801,-0.50558 0.63622,-1.10073 0.85367,-1.6946 0.35401,-0.96694 0.5708,-1.97873 0.85367,-2.96873 0.14184,-0.49641 0.24616,-1.00479 0.42047,-1.49074 0.10709,-0.29853 0.14876,-0.68995 0.42046,-0.85367 0.19213,-0.11569 0.42916,0.13251 0.63707,0.2166 0.14965,0.0605 0.43321,0.2166 0.43321,0.2166"
       style="fill:none;stroke-linecap:round;stroke-linejoin:round" />
    <path
       id="ll0odnf9go"
       stroke-width="1.01931"
       stroke="#0074d9"
       d="m 154.31764,100.83081 v 0 c 0,0 -0.11593,-0.30694 -0.2166,-0.4332 -0.18726,-0.23483 -0.36129,-0.5182 -0.63707,-0.63707 -0.25741,-0.11098 -0.56062,0 -0.84093,0 -0.35676,0 -0.73916,-0.13289 -1.07028,0 -0.42045,0.16869 -0.75697,0.51475 -1.05753,0.85367 -0.27302,0.30796 -0.59073,0.64866 -0.63706,1.05753 -0.0357,0.31522 0.17758,0.64968 0.42046,0.85367 0.22479,0.18883 0.5601,0.2166 0.85367,0.2166 0.35983,0 0.73051,-0.0665 1.05753,-0.2166 0.46462,-0.21329 0.87424,-0.53514 1.27414,-0.85367 0.31245,-0.24884 0.61362,-0.52163 0.85367,-0.84093 0.19062,-0.25355 0.10327,-0.85367 0.42046,-0.85367 0.29256,0 -0.20386,0.56113 -0.20386,0.85367 0,0.28847 -0.0545,0.71275 0.20386,0.84093 0.44512,0.22094 1.49074,0 1.49074,0"
       style="fill:none;stroke-linecap:round;stroke-linejoin:round" />
    <path
       id="ll0odng0q10"
       stroke-width="1.01931"
       stroke="#0074d9"
       d="m 161.96245,94.8806 v 0 c 0,0 0,0 0,0 -0.28455,0.28452 -0.59156,0.54826 -0.85367,0.85367 -0.58841,0.68549 -1.17669,1.37492 -1.6946,2.11507 -0.47395,0.67733 -1.02543,1.33937 -1.27414,2.1278 -0.19165,0.60751 -0.26662,1.33262 0,1.9112 0.21397,0.4643 0.76292,0.85367 1.27414,0.85367 0.76423,0 1.46436,-0.47436 2.1278,-0.85367 1.32938,-0.76002 2.76064,-1.44487 3.82241,-2.54827 0.83389,-0.86666 1.26738,-2.06104 1.69459,-3.18533 0.15088,-0.39702 0.22487,-0.91381 0,-1.27414 -0.20084,-0.32184 -0.7053,-0.56138 -1.05753,-0.42046 -0.84186,0.33675 -1.55782,0.98949 -2.1278,1.6946 -0.93822,1.16073 -1.76944,2.43984 -2.33167,3.8224 -0.23998,0.59018 -0.3329,1.36804 0,1.9112 0.33052,0.53922 1.6946,0.85367 1.6946,0.85367"
       style="fill:none;stroke-linecap:round;stroke-linejoin:round" />
    <path
       id="ll0odngl1e"
       stroke-width="1.01931"
       stroke="#0074d9"
       d="m 173.21306,94.664 v 0 c 0,0 -0.055,-0.59388 -0.20386,-0.84093 -0.0833,-0.13824 -0.28005,-0.2677 -0.43321,-0.2166 -0.53975,0.1799 -1.08583,0.44148 -1.47799,0.85367 -1.04402,1.09728 -2.10342,2.24324 -2.76488,3.6058 -0.50383,1.03791 -0.63707,2.24821 -0.63707,3.40194 0,0.47487 0.2572,0.98924 0.63707,1.27413 0.53723,0.40288 1.24046,0.66969 1.9112,0.63707 0.89476,-0.0435 1.78692,-0.3816 2.54827,-0.85367 0.76572,-0.47474 1.50828,-1.10531 1.9112,-1.9112 0.28492,-0.5698 0.17607,-1.29898 0,-1.9112 -0.12519,-0.43538 -0.46933,-0.81774 -0.85366,-1.05754 -0.23781,-0.14843 -0.84093,0 -0.84093,0"
       style="fill:none;stroke-linecap:round;stroke-linejoin:round" />
    <path
       id="ll0odnh2gi"
       stroke-width="1.01931"
       stroke="#0074d9"
       d="m 174.48719,104.22001 v 0 c 0,0 0.15635,0.0397 0.2166,0 0.16542,-0.10919 0.23224,-0.35829 0.42047,-0.42046 0.27022,-0.0892 0.58345,-0.0892 0.85367,0 0.18823,0.0622 0.49369,0.23622 0.42046,0.42046 -0.12992,0.32682 -0.54464,0.4476 -0.84093,0.63707 -0.48244,0.30847 -1.03263,0.51003 -1.49073,0.85367 -0.39882,0.29916 -0.75793,0.65911 -1.05753,1.05753 -0.1348,0.17927 -0.35075,0.45729 -0.21661,0.63707 0.17558,0.23533 0.85367,0.2166 0.85367,0.2166"
       style="fill:none;stroke-linecap:round;stroke-linejoin:round" />
    <path
       id="ll0odnhsr7"
       stroke-width="1.01931"
       stroke="#0074d9"
       d="m 145.3987,116.54089 v 0 c 0,0 0.0619,-0.54622 0,-0.42046 -0.19762,0.40122 -0.30686,0.84156 -0.42047,1.27413 -0.23922,0.91076 -0.37838,1.84673 -0.63707,2.75213 -0.16687,0.58407 -0.46284,1.12545 -0.63706,1.70735 -0.0402,0.13429 -0.0961,0.52252 0,0.42046 0.1528,-0.16233 0.11176,-0.43397 0.20386,-0.63707 0.26125,-0.57603 0.54387,-1.14315 0.85367,-1.6946 0.32788,-0.58368 0.69625,-1.14379 1.05753,-1.70734 0.27589,-0.4304 0.49082,-0.91393 0.85367,-1.27413 0.22512,-0.22349 0.54292,-0.48417 0.85367,-0.42047 0.21843,0.0447 0.14334,0.42251 0.20386,0.63707 0.0797,0.2826 0.0845,0.59145 0.21661,0.85367 0.1582,0.31408 0.33077,0.66816 0.63706,0.84093 0.24785,0.13977 0.58731,0.10015 0.85367,0 0.32917,-0.12372 0.5778,-0.40377 0.84093,-0.63707 0.37527,-0.33267 0.71563,-0.70294 1.07027,-1.05753 0.28244,-0.28248 0.59233,-0.541 0.84093,-0.85367 0.0423,-0.0531 0.0374,-0.26056 0,-0.20386 -0.17263,0.26158 -0.31019,0.54762 -0.42046,0.84093 -0.10331,0.27483 -0.32395,0.58037 -0.21661,0.85367 0.082,0.2087 0.41801,0.26476 0.63707,0.2166 0.46375,-0.10206 0.84218,-0.43983 1.27414,-0.63707 0.35012,-0.15977 0.75053,-0.21902 1.07027,-0.4332 0.1294,-0.0866 0.0971,-0.53387 0.20386,-0.42047 0.14555,0.15468 0.0576,0.4327 0,0.63707 -0.0861,0.30528 -0.37035,0.54049 -0.42046,0.85367 -0.0249,0.1557 0.10428,0.30987 0.2166,0.42047 0.18126,0.1785 0.39011,0.35917 0.63707,0.42046 0.34213,0.0849 0.72041,0.10295 1.05753,0 0.60308,-0.18424 1.21154,-0.43563 1.6946,-0.84093 0.88417,-0.74193 1.62967,-1.64198 2.34441,-2.54827 0.35329,-0.44798 0.66116,-0.94923 0.84093,-1.49074 0.17944,-0.54048 0.2166,-1.12518 0.2166,-1.6946 0,-0.22424 0.003,-0.59209 -0.2166,-0.63706 -0.30703,-0.063 -0.61098,0.20755 -0.84093,0.42046 -0.69956,0.64777 -1.45012,1.29338 -1.91121,2.12781 -0.34805,0.62993 -0.39005,1.3967 -0.4332,2.11506 -0.0301,0.50124 -0.0414,1.05995 0.2166,1.49074 0.21142,0.35306 0.65007,0.57935 1.05753,0.63707 0.63482,0.09 1.31771,0.026 1.91121,-0.21661 1.0006,-0.409 1.8715,-1.08607 2.76487,-1.6946 0.66773,-0.45486 1.39072,-0.87278 1.9112,-1.49073 0.63396,-0.75264 1.05064,-1.6681 1.49074,-2.54827 0.20001,-0.40008 0.42046,-0.82692 0.42046,-1.27414 0,-0.1557 -0.27089,-0.24731 -0.42046,-0.20386 -0.39869,0.11582 -0.82102,0.30503 -1.07027,0.63707 -0.83661,1.11436 -1.59015,2.31497 -2.11507,3.6058 -0.26856,0.66038 -0.34064,1.42576 -0.2166,2.1278 0.099,0.56024 0.39344,1.14354 0.85367,1.478 0.40279,0.2928 0.99892,0.3523 1.478,0.2166 0.58619,-0.16602 1.05992,-0.62674 1.49073,-1.05753 0.2243,-0.22425 0.25822,-0.58113 0.42047,-0.85367 0.0522,-0.0878 0.11449,-0.2166 0.2166,-0.2166 0.0722,0 -0.0319,0.15187 0,0.2166 0.11242,0.2282 0.20909,0.49538 0.42046,0.63707 0.2439,0.16347 0.56197,0.1836 0.85368,0.2166 0.35027,0.0397 0.71983,0.10117 1.05753,0 0.39773,-0.11913 0.73301,-0.39498 1.07027,-0.63707 0.16347,-0.11734 0.27902,-0.29012 0.42047,-0.4332 0.21108,-0.21368 0.51819,-0.36122 0.63706,-0.63707 0.11095,-0.25737 0.12537,-0.59018 0,-0.84093 -0.11485,-0.22973 -0.39943,-0.33586 -0.63706,-0.4332 -0.1297,-0.0531 -0.28588,-0.0391 -0.42047,0 -0.36959,0.1074 -0.7668,0.19647 -1.07027,0.4332 -0.35513,0.277 -0.6998,0.62981 -0.84093,1.05753 -0.15573,0.47194 -0.0882,1.00173 0,1.49074 0.0556,0.30847 0.14015,0.70078 0.42046,0.84093 0.50935,0.2547 1.13487,0.32146 1.6946,0.2166 0.62542,-0.11709 1.14471,-0.55654 1.70734,-0.85367 0.64381,-0.34006 1.31318,-0.64229 1.9112,-1.05753 0.32808,-0.22781 0.5585,-0.57119 0.84093,-0.85367 0.0701,-0.0701 0.11746,-0.20386 0.21661,-0.20386 0.0992,0 0.12765,0.16003 0.2166,0.20386 0.20121,0.0991 0.41987,0.16067 0.63707,0.2166 0.0658,0.017 0.14345,0.0311 0.20386,0 0.0908,-0.0468 0.27767,-0.2984 0.2166,-0.2166 -0.27293,0.36568 -0.64959,0.66217 -0.85367,1.07027 -0.22906,0.45818 -0.29624,0.98109 -0.42046,1.478 -0.0883,0.35306 -0.21661,1.07027 -0.21661,1.07027"
       style="fill:none;stroke-linecap:round;stroke-linejoin:round" />
    <path
       id="ll0odori510"
       stroke-width="1.01931"
       stroke="#001f3f"
       d="m 68.31354,68.54424 v 0 c 0,0 -0.31871,0.2166 -0.2166,0.2166 0.22429,0 0.46172,-0.0767 0.63706,-0.2166 0.20076,-0.16016 0.18343,-0.57744 0.43321,-0.63707 0.19573,-0.0468 0.30011,0.2719 0.42047,0.4332 0.0943,0.1264 0.18496,0.26604 0.2166,0.42047 0.0426,0.20806 -0.0938,0.44658 0,0.63707 0.0697,0.14142 0.2628,0.2166 0.42046,0.2166 0.29357,0 0.6022,-0.0651 0.85367,-0.2166 0.13342,-0.0804 0.0481,-0.42047 0.20386,-0.42047 0.20124,0 0.43321,0.21928 0.43321,0.42047 0,0.65324 -0.27343,1.27783 -0.43321,1.9112 -0.19706,0.7813 -0.32535,1.58872 -0.63706,2.33166 -0.259,0.61732 -0.6102,1.20929 -1.05753,1.70735 -0.21197,0.23596 -0.54046,0.37039 -0.85368,0.42046 -0.15568,0.0248 -0.52187,-0.0959 -0.42046,-0.2166 0.39186,-0.46646 0.95981,-0.75875 1.49074,-1.05754 1.73655,-0.97738 3.52686,-1.85628 5.3004,-2.76487 0.98722,-0.5057 2.05813,-0.86335 2.98148,-1.478 0.58247,-0.38771 1.04992,-0.93725 1.47799,-1.49073 0.0857,-0.11085 0.13603,-0.3867 0,-0.42047 -0.54824,-0.13607 -1.22816,-0.31866 -1.6946,0 -1.19852,0.81864 -2.10991,2.0153 -2.96873,3.18534 -0.71283,0.97115 -1.44601,2.00931 -1.70734,3.18534 -0.18692,0.84105 0.0456,1.77882 0.4332,2.54827 0.22894,0.45448 1.27414,0.84093 1.27414,0.84093"
       style="fill:none;stroke-linecap:round;stroke-linejoin:round" />
    <path
       id="ll0odosbz1"
       stroke-width="1.01931"
       stroke="#001f3f"
       d="m 81.47535,77.25932 v 0 c 0,0 -0.27181,0 -0.20386,0 0.42471,0 0.85757,-0.0828 1.27413,0 0.30739,0.0612 0.70078,0.14015 0.84093,0.42046 0.13084,0.26171 -0.01,0.63478 -0.20386,0.85367 -0.4042,0.45589 -0.99912,0.69772 -1.49074,1.05753 -0.57026,0.41741 -1.09917,0.89343 -1.69459,1.27414 -0.18898,0.12079 -0.53435,0.0172 -0.63707,0.2166 -0.0713,0.1385 0.26616,0.18259 0.42046,0.20386 0.34921,0.0482 0.70598,0.0259 1.05754,0 0.5716,-0.0422 1.70733,-0.20386 1.70733,-0.20386"
       style="fill:none;stroke-linecap:round;stroke-linejoin:round" />
    <path
       id="ll0odosu92"
       stroke-width="1.01931"
       stroke="#001f3f"
       d="m 91.46457,68.54424 v 0 c 0,0 -0.0368,-0.50291 -0.21661,-0.63707 -0.17019,-0.12703 -0.47762,-0.14028 -0.63706,0 -0.45744,0.40237 -0.76165,0.95815 -1.05753,1.49074 -0.76838,1.38307 -1.61152,2.74728 -2.12781,4.24286 -0.27818,0.80577 -0.25796,1.69677 -0.2166,2.54827 0.0317,0.65249 0.0348,1.39353 0.43321,1.91121 0.38574,0.50124 1.06301,0.81965 1.69459,0.85367 0.80455,0.0433 1.62346,-0.25292 2.33167,-0.63707 1.02221,-0.5545 2.01949,-1.23515 2.76487,-2.12781 0.70974,-0.84997 1.29134,-1.87947 1.49074,-2.96873 0.10866,-0.59362 -0.18553,-1.29427 -0.63707,-1.6946 -0.31778,-0.28171 -0.87105,-0.13378 -1.27413,0 -0.69101,0.22947 -1.31228,0.64357 -1.9112,1.05753 -0.33104,0.22884 -0.85368,0.85367 -0.85368,0.85367"
       style="fill:none;stroke-linecap:round;stroke-linejoin:round" />
    <path
       id="sl0odpuqm7"
       stroke-width="1.01931"
       stroke="#001f3f"
       d="m 63.85407,148.81473 38.43699,0.004"
       style="fill:none;stroke-linecap:round;stroke-linejoin:round" />
    <path
       id="ll0odspukr"
       stroke-width="1.01931"
       stroke="#0074d9"
       d="m 146.88943,16.94177 v 0 c 0,0 -0.2837,0.0266 -0.2166,0 0.4156,-0.16525 0.84985,-0.27903 1.27414,-0.42046 0.21278,-0.071 0.41276,-0.2166 0.63706,-0.2166 0.10211,0 0.15554,0.1348 0.2166,0.2166 0.15218,0.20386 0.28032,0.42467 0.42047,0.63707 0.14015,0.2124 0.16963,0.59438 0.42046,0.63706 0.31271,0.0531 0.55648,-0.30961 0.85367,-0.42046 0.27505,-0.10257 0.60978,-0.0531 0.85367,-0.2166 0.21138,-0.14169 0.16604,-0.63707 0.42047,-0.63707 0.21236,0 0.0511,0.43091 0,0.63707 -0.0914,0.36822 -0.24043,0.72358 -0.42047,1.05753 -0.31877,0.5912 -0.68008,1.16061 -1.07027,1.70734 -0.32063,0.44926 -0.60418,0.9593 -1.05753,1.27414 -0.49566,0.34427 -1.10655,0.50162 -1.6946,0.63706 -0.34765,0.0802 -0.81801,0.25228 -1.07027,0 -0.20759,-0.20755 -0.0109,-0.66815 0.2166,-0.85367 0.61389,-0.50048 1.40676,-0.72982 2.1278,-1.05753 1.61549,-0.73428 3.28461,-1.35071 4.87994,-2.12781 0.88471,-0.43091 1.74461,-0.92272 2.54827,-1.49073 0.40712,-0.2877 0.85422,-0.60241 1.05753,-1.05753 0.11931,-0.26706 0.0863,-0.8166 -0.20386,-0.85367 -0.53603,-0.0686 -1.06464,0.30477 -1.49074,0.63706 -0.86906,0.67784 -1.62649,1.49737 -2.33166,2.34441 -0.71459,0.85839 -1.43023,1.74416 -1.91121,2.75213 -0.24704,0.51781 -0.2166,1.13373 -0.2166,1.70734 0,0.35982 -0.071,0.84132 0.2166,1.05753 0.39799,0.2993 1.478,0.21661 1.478,0.21661"
       style="fill:none;stroke-linecap:round;stroke-linejoin:round" />
    <path
       id="ll0odsqt7p"
       stroke-width="1.01931"
       stroke="#0074d9"
       d="m 156.64931,22.89198 v 0 c 0,0 -0.27182,0 -0.20387,0 0.28031,0 0.56062,0 0.84093,0 0.35676,0 0.71636,-0.0448 1.07027,0 0.22252,0.0283 0.63707,-0.008 0.63707,0.21661 0,0.30031 -0.3995,0.45333 -0.63707,0.63706 -0.40254,0.31128 -0.82702,0.59796 -1.27413,0.84093 -0.33815,0.18373 -0.75763,0.20871 -1.07027,0.43321 -0.20669,0.14844 -0.50237,0.39613 -0.42047,0.63707 0.0684,0.20106 0.42471,0 0.63707,0 0.42471,0 1.27413,0 1.27413,0"
       style="fill:none;stroke-linecap:round;stroke-linejoin:round" />
    <path
       id="ll0odsrd4e"
       stroke-width="1.01931"
       stroke="#0074d9"
       d="m 167.91266,15.03057 v 0 c 0,0 -0.0798,-0.49882 -0.21661,-0.42046 -0.52122,0.29853 -0.84943,0.84947 -1.27413,1.27413 -0.70927,0.70932 -1.57954,1.2879 -2.1278,2.12781 -0.53719,0.82296 -0.86647,1.78812 -1.05754,2.75213 -0.0976,0.49258 -0.0776,1.08378 0.21661,1.49074 0.33328,0.46111 0.93205,0.69351 1.47799,0.85367 0.68371,0.20055 1.41631,0.24196 2.1278,0.20386 0.65137,-0.0349 1.3804,-0.0413 1.91121,-0.42047 1.0199,-0.72854 1.84028,-1.73065 2.54827,-2.76487 0.24335,-0.35548 0.3006,-0.85163 0.2166,-1.27413 -0.0686,-0.34491 -0.31518,-0.69925 -0.63706,-0.84093 -0.38876,-0.17099 -0.87107,-0.13379 -1.27414,0 -0.691,0.22947 -1.9112,1.05753 -1.9112,1.05753"
       style="fill:none;stroke-linecap:round;stroke-linejoin:round" />
    <path
       id="ll0oe2e4pw"
       stroke-width="0.637069"
       stroke="#0074d9"
       d="m 140.93922,0.37802 v 0 c 0,0 0.0511,0.16551 0,0.2166 -0.0511,0.0511 -0.14439,0 -0.2166,0 -0.068,0 -0.13591,0 -0.20386,0 -0.21236,0 -0.42471,0 -0.63707,0 -0.42471,0 -0.85426,-0.0638 -1.27413,0 -0.51043,0.0776 -1.00415,0.24783 -1.49074,0.42047 -0.5093,0.18067 -1.00131,0.40798 -1.49074,0.63706 -0.57286,0.26809 -1.12294,0.58305 -1.6946,0.85368 -0.6306,0.29853 -1.29471,0.52685 -1.9112,0.85367 -0.58831,0.31178 -1.12365,0.71492 -1.6946,1.05753 -0.49101,0.29458 -0.99972,0.55909 -1.49074,0.85367 -0.57095,0.34262 -1.12914,0.706 -1.6946,1.05753 -0.56851,0.35345 -1.15666,0.67682 -1.70734,1.05753 -0.37266,0.25763 -0.68932,0.5898 -1.05753,0.85367 -0.62233,0.44608 -1.29338,0.82195 -1.9112,1.27414 -0.44537,0.32605 -0.83673,0.72091 -1.27413,1.05753 -0.48479,0.37307 -1.04057,0.65605 -1.49074,1.07028 -0.4062,0.3737 -0.6867,0.86526 -1.05754,1.27413 -0.33494,0.36924 -0.7233,0.68765 -1.05753,1.05753 -0.30373,0.33612 -0.62093,0.66879 -0.85367,1.05753 -0.19691,0.32886 -0.22354,0.74142 -0.42047,1.07027 -0.23272,0.38875 -0.64911,0.65325 -0.85366,1.05754 -0.16247,0.32108 -0.1023,0.71631 -0.21661,1.05753 -0.17165,0.51246 -0.38231,1.01421 -0.63706,1.49074 -0.2399,0.44875 -0.61335,0.81901 -0.84093,1.27413 -0.20062,0.40123 -0.27898,0.85291 -0.43321,1.27414 -0.13042,0.35624 -0.30158,0.69733 -0.42046,1.05753 -0.1618,0.49029 -0.3529,0.97892 -0.42047,1.49074 -0.0739,0.55998 0.0816,1.13563 0,1.6946 -0.0648,0.44391 -0.35169,0.83303 -0.4332,1.27413 -0.0648,0.35077 0.0309,0.71492 0,1.07027 -0.0373,0.4285 -0.13384,0.84973 -0.20386,1.27414 -0.0701,0.42505 -0.18012,0.84488 -0.21661,1.27413 -0.036,0.42314 0,0.84947 0,1.27414 0,0.42467 0.0393,0.85125 0,1.27413 -0.0333,0.35829 -0.2166,0.69772 -0.2166,1.05754 0,0.56941 0.18246,1.1262 0.2166,1.69459 0.0382,0.63593 -0.038,1.27529 0,1.91121 0.0343,0.57259 0.15388,1.13716 0.21661,1.70734 0.0774,0.70408 0.059,1.42168 0.20386,2.11506 0.13729,0.65733 0.49069,1.25579 0.63707,1.9112 0.13974,0.62573 0.10543,1.27974 0.2166,1.91121 0.10162,0.57718 0.26874,1.14124 0.42046,1.70734 0.1329,0.49589 0.32549,0.97598 0.43321,1.47799 0.10523,0.49042 0.0991,1.00033 0.20386,1.49074 0.10813,0.50609 0.33172,0.98338 0.4332,1.49074 0.11159,0.55794 0.17175,1.12659 0.20387,1.6946 0.036,0.63605 0,1.27413 0,1.9112 0,0.63707 0,1.27413 0,1.9112 0,0.63707 0.0339,1.27503 0,1.9112 -0.0341,0.63975 -0.16974,1.27146 -0.20387,1.91121 -0.0339,0.63617 0,1.27413 0,1.9112 0,0.77722 0,1.55444 0,2.33167 0,0.63706 0,1.27413 0,1.9112 0,0.78142 0,1.56298 0,2.34441 0,0.70497 0,1.41008 0,2.11506 0,0.70931 -0.034,1.41939 0,2.1278 0.0341,0.71174 0.13698,1.4185 0.20387,2.12781 0.0733,0.77709 0.10621,1.5589 0.2166,2.33167 0.10224,0.71568 0.3526,1.40804 0.42046,2.1278 0.073,0.77378 0,1.55445 0,2.33167 0,0.56482 0,1.12977 0,1.6946 0,0.63707 0,1.27413 0,1.9112 0,0.70931 0,1.41849 0,2.12781 0,0.56482 0,1.12977 0,1.69459 0,0.63707 0,1.27414 0,1.91121 0,0.70931 0,1.41849 0,2.1278 0,0.63707 0.066,1.27758 0,1.9112 -0.0749,0.71913 -0.35259,1.40805 -0.42046,2.12781 -0.073,0.77378 0,1.55444 0,2.33167 0,0.77722 0,1.55444 0,2.33166 0,0.63707 0.0341,1.27503 0,1.9112 -0.0382,0.71186 -0.18036,1.41582 -0.2166,2.12781 -0.0361,0.70829 0,1.41849 0,2.1278 0,0.77723 0,1.55445 0,2.33167 0,0.63707 0,1.27414 0,1.9112 0,0.49692 0,0.99383 0,1.49074 0,0.56483 0.0339,1.1308 0,1.6946 -0.0341,0.56788 -0.0923,1.13666 -0.20387,1.6946 -0.10148,0.50736 -0.33172,0.98338 -0.4332,1.49074 -0.11158,0.55794 -0.12408,1.1313 -0.20386,1.6946 -0.0604,0.42658 -0.18296,0.84462 -0.2166,1.27413 -0.0388,0.49539 0.0974,1.00351 0,1.49074 -0.11835,0.59171 -0.50158,1.10659 -0.63707,1.6946 -0.0801,0.34771 0.0692,0.72027 0,1.07027 -0.0735,0.37218 -0.27849,0.70575 -0.42047,1.05753 -0.14258,0.35319 -0.32394,0.69262 -0.4332,1.05753 -0.10417,0.34797 -0.089,0.72575 -0.20386,1.07028 -0.0997,0.29916 -0.29135,0.55934 -0.43321,0.84093 -0.14271,0.28324 -0.24574,0.58891 -0.42046,0.85367 -0.10918,0.16538 -0.28031,0.28031 -0.42047,0.42046 -0.21236,0.2124 -0.42471,0.42467 -0.63707,0.63707 -0.1444,0.14436 -0.2888,0.28885 -0.43321,0.4332 -0.21235,0.21241 -0.47163,0.38645 -0.63706,0.63707 -0.12282,0.18616 -0.0651,0.46251 -0.20386,0.63707 -0.15836,0.19915 -0.41843,0.29037 -0.63707,0.42046 -0.13873,0.0826 -0.30382,0.12003 -0.43321,0.21661 -0.15885,0.11849 -0.28031,0.28031 -0.42046,0.42046 -0.0722,0.0723 -0.13138,0.16042 -0.2166,0.2166 -0.13,0.0858 -0.28115,0.13417 -0.42047,0.20386 -0.14101,0.0705 -0.30898,0.10513 -0.42046,0.21661 -0.11148,0.11149 -0.0903,0.32618 -0.2166,0.42046 -0.17976,0.13417 -0.41967,0.16144 -0.63707,0.21661 -0.07,0.0177 -0.15242,-0.0331 -0.2166,0 -0.0881,0.0454 -0.11572,0.17124 -0.20387,0.2166 -0.0642,0.0331 -0.1444,0 -0.2166,0 -0.21236,0 -0.44656,-0.0938 -0.63706,0 -0.14144,0.0697 -0.0752,0.35077 -0.21661,0.42047 -0.1905,0.0938 -0.43142,-0.053 -0.63707,0 -0.096,0.0247 -0.10784,0.19188 -0.20386,0.2166 -0.20564,0.053 -0.42471,0 -0.63707,0 -0.1444,0 -0.2888,0 -0.4332,0 -0.068,0 -0.13914,-0.0208 -0.20386,0 -0.152,0.0487 -0.27362,0.20386 -0.43321,0.20386 -0.0679,0 0,-0.20386 0,-0.20386"
       style="fill:none;stroke-linecap:round;stroke-linejoin:round" />
    <path
       id="ll0oe2ih9o"
       stroke-width="0.637069"
       stroke="#0074d9"
       d="m 140.72262,192.98898 v 0 c 0,0 0.0495,-0.16398 0,-0.2166 -0.0466,-0.0494 -0.13591,0 -0.20386,0 -0.1444,0 -0.28881,0 -0.43321,0 -0.0679,0 -0.13591,0 -0.20386,0 -0.0722,0 -0.1444,0 -0.2166,0 -0.21236,0 -0.42471,0 -0.63707,0 -0.28455,0 -0.56912,0 -0.85367,0 -0.14016,0 -0.28031,0 -0.42046,0 -0.28456,0 -0.56912,0 -0.85367,0 -0.28031,0 -0.56063,0 -0.84093,0 -0.28455,0 -0.57138,-0.0358 -0.85367,0 -0.29124,0.0369 -0.56426,0.16742 -0.85368,0.2166 -0.13816,0.0234 -0.2803,0 -0.42046,0 -0.21236,0 -0.42471,0 -0.63707,0 -0.14015,0 -0.28031,0 -0.42046,0 -0.21236,0 -0.42471,0 -0.63707,0 -0.28455,0 -0.57314,0.0477 -0.85367,0 -0.15543,-0.0264 -0.2628,-0.2166 -0.42046,-0.2166 -0.29358,0 -0.5601,0.2166 -0.85367,0.2166 -0.29358,0 -0.56425,-0.16742 -0.85367,-0.2166 -0.13817,-0.0234 -0.28031,0 -0.42047,0 -0.21236,0 -0.42471,0 -0.63706,0 -0.21236,0 -0.42471,0 -0.63707,0 -0.14016,0 -0.28031,0 -0.42047,0 -0.28455,0 -0.56912,0 -0.85367,0 -0.21236,0 -0.42471,0 -0.63707,0 -0.14015,0 -0.28206,0.0222 -0.42046,0 -0.28888,-0.0462 -0.56318,-0.16921 -0.85367,-0.20386 -0.28255,-0.0338 -0.57615,0.0629 -0.85367,0 -0.37151,-0.0842 -0.68602,-0.34899 -1.05753,-0.43321 -0.27752,-0.0629 -0.56912,0 -0.85367,0 -0.42471,0 -0.85103,0.0369 -1.27414,0 -0.35763,-0.0312 -0.70018,-0.16946 -1.05753,-0.20386 -0.35088,-0.0338 -0.70501,0 -1.05753,0 -0.35676,0 -0.71352,0 -1.07028,0 -0.4247,0 -0.84942,0 -1.27413,0 -0.35251,0 -0.70502,0 -1.05753,0 -0.35251,0 -0.70502,0 -1.05753,0 -0.35676,0 -0.71486,-0.031 -1.07027,0 -0.4285,0.0372 -0.84601,0.16258 -1.27414,0.20386 -0.27902,0.0269 -0.56062,0 -0.84093,0 -0.35676,0 -0.71351,0 -1.07028,0 -0.49266,0 -0.98533,0 -1.47799,0 -0.35676,0 -0.71352,0 -1.07027,0 -0.35252,0 -0.70502,0 -1.05753,0 -0.35252,0 -0.71211,-0.0703 -1.05754,0 -0.37713,0.0768 -0.70157,0.32287 -1.07027,0.43321 -0.34391,0.10295 -0.7011,0.16092 -1.05753,0.20386 -0.21084,0.0253 -0.42692,-0.0306 -0.63707,0 -0.29052,0.0422 -0.56606,0.15773 -0.85367,0.2166 -0.0666,0.0136 -0.13591,0 -0.20386,0 -0.0722,0 -0.16555,-0.0511 -0.21661,0 -0.0511,0.0511 0.0642,0.18348 0,0.2166 -0.12459,0.0642 -0.54582,0.0627 -0.42046,0 0.53976,-0.26985 1.6946,-0.63706 1.6946,-0.63706"
       style="fill:none;stroke-linecap:round;stroke-linejoin:round" />
    <text
       xml:space="preserve"
       style="font-style:normal;font-weight:normal;font-size:10.5833px;line-height:1.25;font-family:sans-serif;letter-spacing:0px;word-spacing:0px;fill:#000000;fill-opacity:1;stroke:none;stroke-width:0.264583"
       x="3.6042116"
       y="78.138939"
       id="text32375"><tspan
         sodipodi:role="line"
         id="tspan32373"
         x="3.6042116"
         y="78.138939"
         style="stroke-width:0.264583">2.478</tspan></text>
    <text
       xml:space="preserve"
       style="font-style:normal;font-weight:normal;font-size:10.5833px;line-height:1.25;font-family:sans-serif;letter-spacing:0px;word-spacing:0px;fill:#000000;fill-opacity:1;stroke:none;stroke-width:0.264583"
       x="28.980095"
       y="171.41814"
       id="text32379"><tspan
         sodipodi:role="line"
         id="tspan32377"
         x="28.980095"
         y="171.41814"
         style="stroke-width:0.264583">1</tspan></text>
    <path
       style="opacity:0.590842;fill:#ffa600;stroke:#ff0000;stroke-width:0.665001"
       id="path34900"
       d="m 64.772576,1.5528645 c -1.288367,0.3307773 -2.496357,0.8748023 -3.668149,1.4936035 -1.04598,0.5674217 -2.049494,1.1943112 -2.907829,2.0207018 -0.69451,0.72249 -1.250413,1.5536391 -1.750052,2.4178476 -0.512434,0.9306698 -0.930211,1.9069032 -1.302162,2.9007446 -0.465709,1.184423 -0.790049,2.415873 -1.10485,3.646916 -0.297148,1.266206 -0.557977,2.541149 -0.797359,3.819508 -0.205925,1.33758 -0.540433,2.648151 -0.90955,3.948395 -0.413277,1.379182 -0.854697,2.749642 -1.264531,4.12992 -0.497004,1.677251 -0.870551,3.384808 -1.152224,5.11023 -0.260665,1.72462 -0.400007,3.463515 -0.502385,5.203648 -0.06998,1.810972 -0.0302,3.623643 -0.05546,5.435592 -0.0024,1.875067 -0.220692,3.737268 -0.472753,5.592095 -0.263694,1.863246 -0.557432,3.721733 -0.851471,5.580333 -0.239845,1.649804 -0.525047,3.29203 -0.907704,4.914855 -0.338682,1.457386 -0.839292,2.869538 -1.35759,4.27083 -0.581168,1.49766 -1.151956,2.999245 -1.726893,4.4993 -0.615765,1.479897 -1.259387,2.947487 -2.028124,4.354796 -0.472337,0.842118 -1.095108,1.578864 -1.88114,2.138833 -0.828852,0.481005 0.334349,-0.191378 0.453679,-0.283734 0.09413,-0.07286 -0.219848,0.09155 -0.331685,0.132318 -0.311374,0.113512 -0.633253,0.199036 -0.950359,0.294667 -0.757439,0.257632 -1.572302,0.573251 -2.112748,1.182301 -0.137848,0.166656 -0.255762,0.339106 -0.120147,0.536906 0.310178,0.179289 0.649369,0.301355 0.970084,0.461941 0.680103,0.362834 1.088056,1.022847 1.480216,1.659668 0.512887,0.870333 0.933649,1.789387 1.365377,2.701295 0.573326,1.191982 1.185657,2.364436 1.771751,3.550118 0.660294,1.298178 1.243076,2.630027 1.736519,3.999863 0.485767,1.372613 0.855908,2.780659 1.223086,4.188208 0.366424,1.387084 0.588264,2.804435 0.796981,4.221808 0.257783,1.814933 0.385675,3.64376 0.474279,5.473608 0.06832,1.61418 0.03204,3.22936 -0.0034,4.84368 -0.06434,1.55517 -0.01881,3.10781 0.11562,4.65743 0.125974,1.54492 0.437658,3.06558 0.732378,4.58484 0.323969,1.48019 0.630102,2.96416 0.937204,4.44792 0.238448,1.17387 0.525497,2.33469 0.890207,3.47558 0.344857,1.10929 0.676605,2.22229 1.045268,3.324 0.341225,1.09531 0.806024,2.14014 1.359641,3.14267 0.583139,1.01313 1.249116,1.97689 1.931963,2.92485 0.581419,0.82761 1.197668,1.61982 1.945114,2.30264 0.684876,0.60022 1.461751,1.08659 2.27589,1.49012 0.702884,0.31607 1.463125,0.46897 2.196113,0.698 0.529413,0.16318 0.982739,0.46944 1.405625,0.81812 0.329084,0.29269 0.665502,0.57573 1.027211,0.82735 0.204536,0.15423 0.431935,0.26072 0.676949,0.33073 0.13012,0.0435 0.274347,0.0658 0.394288,0.13577 0.0721,0.0283 0.0231,0.0177 0.14833,-0.0246 0,0 0.752565,-0.46915 0.752565,-0.46915 v 0 c 0.07232,-0.0924 0.08569,-0.0549 0.03573,-0.11389 -0.130442,-0.076 -0.283739,-0.10027 -0.425617,-0.148 -0.233757,-0.0671 -0.466145,-0.14567 -0.661262,-0.29626 -0.353627,-0.26008 -0.704406,-0.52254 -1.03269,-0.81491 -0.432914,-0.3589 -0.8801,-0.68667 -1.425406,-0.85577 -0.715804,-0.21854 -1.457873,-0.36778 -2.125027,-0.7215 -0.788903,-0.42727 -1.574713,-0.87674 -2.255722,-1.4664 -0.735912,-0.68307 -1.361032,-1.45949 -1.943801,-2.27656 -0.686683,-0.94075 -1.336857,-1.90629 -1.915607,-2.918 -0.550227,-0.99601 -1.031909,-2.02139 -1.374013,-3.10996 -0.356272,-1.10739 -0.672452,-2.22658 -1.016928,-3.33761 -0.346083,-1.13915 -0.681041,-2.28399 -0.905333,-3.45454 -0.306943,-1.48484 -0.600133,-2.97253 -0.924785,-4.45371 -0.310973,-1.50879 -0.60185,-3.02458 -0.75338,-4.5591 -0.124153,-1.54854 -0.158348,-3.10093 -0.09586,-4.65379 0.04584,-1.61298 0.07188,-3.22407 -0.02838,-4.83634 -0.07821,-1.835918 -0.223817,-3.66792 -0.464561,-5.490274 -0.186126,-1.428404 -0.410948,-2.848584 -0.787598,-4.241562 -0.361358,-1.412454 -0.739924,-2.822017 -1.230876,-4.196067 -0.4961,-1.372907 -1.078535,-2.708569 -1.76226,-3.999473 -0.577292,-1.191062 -1.176557,-2.371693 -1.718419,-3.57968 -0.447019,-0.908585 -0.872723,-1.828729 -1.38462,-2.703621 -0.39661,-0.652458 -0.798399,-1.340253 -1.474475,-1.738585 -0.300704,-0.162018 -0.617323,-0.287261 -0.928894,-0.425792 -0.107723,-0.09921 0.141062,-0.305263 0.190386,-0.375951 0.330142,-0.296225 0.903811,-0.584314 -0.648954,0.304389 -0.06278,0.03593 0.125928,-0.07161 0.191744,-0.101626 0.137546,-0.06274 0.354454,-0.13358 0.49358,-0.181705 1.042567,-0.321863 2.052121,-0.63291 2.934446,-1.338789 0.760243,-0.583777 1.369089,-1.323573 1.820735,-2.170885 0.763696,-1.414439 1.418048,-2.882599 2.027685,-4.369525 0.633129,-1.492663 1.196488,-3.012932 1.777341,-4.526492 0.52692,-1.410697 1.028555,-2.834904 1.381104,-4.300789 0.350242,-1.619652 0.607459,-3.25642 0.848939,-4.895463 0.293413,-1.854764 0.572844,-3.711737 0.828525,-5.572101 0.250105,-1.856873 0.453347,-3.723109 0.453789,-5.599549 0.0035,-1.799627 -0.04363,-3.599413 -0.0081,-5.398672 0.05165,-1.727216 0.189293,-3.451273 0.444077,-5.16123 0.25722,-1.708936 0.61024,-3.398515 1.082008,-5.062139 0.388906,-1.363262 0.782045,-2.725267 1.172993,-4.087934 0.342847,-1.289672 0.632119,-2.591019 0.819298,-3.913402 0.206428,-1.256344 0.426577,-2.510537 0.680109,-3.758318 0.255905,-1.197161 0.5734,-2.380292 0.922176,-3.553573 0.346639,-0.9942324 0.774798,-1.9550684 1.276789,-2.8812696 0.49403,-0.8661135 1.046276,-1.7020889 1.757177,-2.4086306 0.670357,-0.645364 1.427398,-1.1871687 2.244813,-1.6326472 1.162859,-0.6176653 2.356379,-1.1759219 3.643164,-1.485727 0,0 0.318265,-0.2436026 0.318265,-0.2436026 z" />
    <path
       style="opacity:0.590842;fill:#ffa600;stroke:#ff0000;stroke-width:0.665001"
       id="path34902"
       d="m 64.868665,138.65892 c -0.868892,0.13072 -1.710952,0.36102 -2.523987,0.69083 -0.562748,0.23799 -1.091211,0.54647 -1.625063,0.84151 -0.603385,0.32341 -1.194208,0.66915 -1.777627,1.02716 -0.578938,0.36976 -1.143254,0.7616 -1.701959,1.16107 -0.563877,0.38022 -1.062416,0.84523 -1.527977,1.33856 -0.476636,0.51657 -0.86079,1.10344 -1.182954,1.72576 -0.36829,0.80578 -0.613437,1.65922 -0.864725,2.50654 -0.325755,1.06832 -0.607846,2.14929 -0.868365,3.23517 -0.209719,0.92579 -0.501909,1.82696 -0.859237,2.70541 -0.428786,1.04903 -0.917279,2.07062 -1.324573,3.12854 -0.401788,1.01976 -0.622599,2.09473 -0.825823,3.16797 -0.196207,1.01259 -0.458972,2.00958 -0.817398,2.97664 -0.443907,1.18295 -1.113359,1.97166 -2.057136,2.78529 -0.530788,0.36115 -1.037812,0.83938 -1.640001,1.08802 -0.144843,0.0598 0.546293,-0.21905 0.394087,-0.25632 -0.177409,-0.0434 -0.330261,0.15617 -0.496801,0.23117 -0.150606,0.0678 -0.303038,0.13152 -0.454556,0.19729 -0.517375,0.23061 -1.065798,0.38064 -1.592422,0.58599 -0.26961,0.26503 -0.604581,0.47696 -0.808834,0.79511 -0.05303,0.0826 1.779612,0.74579 1.88549,0.78757 1.074814,0.38383 1.940094,1.05543 2.70633,1.88252 0.774346,0.88577 1.185193,1.97428 1.549562,3.07356 0.411271,1.33868 0.611116,2.72746 0.805624,4.11041 0.162441,1.34599 0.310772,2.69339 0.496258,4.03652 0.142735,0.97988 0.346771,1.9484 0.765029,2.84897 0.433687,0.79342 0.983576,1.51769 1.560793,2.21114 0.645142,0.7158 1.41037,1.31268 2.214203,1.83909 0.966991,0.62662 2.023462,1.09052 3.07522,1.55248 0.79017,0.38168 1.595255,0.72976 2.396371,1.08711 0.610161,0.30522 1.238541,0.5608 1.882545,0.78411 0.591042,0.20896 1.20146,0.35602 1.823426,0.43145 0.37804,-0.009 0.809183,0.15705 1.183373,0.0414 0.170355,-0.0526 0.324654,-0.14756 0.486984,-0.22134 0,0 0.06489,-0.0457 0.06489,-0.0457 v 0 c 0.06371,-0.0883 0.190981,-0.15612 0.191143,-0.26504 9.8e-5,-0.0664 -0.12541,-0.0456 -0.190667,-0.058 -0.278638,-0.053 -0.568224,-0.0394 -0.848347,-0.0805 -0.62013,-0.0692 -1.230918,-0.20153 -1.821963,-0.4038 -0.639985,-0.22218 -1.264327,-0.48316 -1.873726,-0.77951 -0.809593,-0.35263 -1.62039,-0.70237 -2.424213,-1.06807 -1.040961,-0.47106 -2.092584,-0.92657 -3.058705,-1.54353 -0.798679,-0.51651 -1.563052,-1.09526 -2.188139,-1.81845 -0.577183,-0.68162 -1.099907,-1.41306 -1.520864,-2.20233 -0.424887,-0.88337 -0.64375,-1.83401 -0.781423,-2.80274 -0.186156,-1.34296 -0.337818,-2.68977 -0.497597,-4.03602 -0.193778,-1.38792 -0.413639,-2.78015 -0.818279,-4.12452 -0.35569,-1.11823 -0.794425,-2.21176 -1.563542,-3.1178 -0.765437,-0.84173 -1.649796,-1.52078 -2.723912,-1.92741 -0.536501,-0.22296 -1.104048,-0.40093 -1.624343,-0.66044 -0.06333,-0.0316 -0.114517,-0.12981 -0.182174,-0.10905 -0.368721,0.11317 -0.699709,0.32473 -1.049562,0.4871 0.514313,-0.25535 1.105262,-0.34475 1.618525,-0.60798 1.439703,-0.61786 2.82902,-1.38044 4.062809,-2.35 0.898168,-0.7977 1.640803,-1.68265 2.039519,-2.83688 0.349708,-0.96703 0.593995,-1.96657 0.779106,-2.9779 0.198596,-1.05676 0.400563,-2.11753 0.781555,-3.12728 0.385178,-1.05102 0.866714,-2.06075 1.271559,-3.10392 0.299336,-0.87117 0.558313,-1.75307 0.731199,-2.65923 0.192434,-1.0624 0.456518,-2.10851 0.71459,-3.1564 0.215662,-0.83325 0.437388,-1.67267 0.791966,-2.45948 0.320731,-0.61838 0.708631,-1.19708 1.183323,-1.70936 0.467751,-0.48948 0.966586,-0.94775 1.52894,-1.32801 0.556503,-0.39994 1.120134,-0.78992 1.699688,-1.15595 0.07186,-0.0436 0.829286,-0.54734 0.230481,-0.14985 -0.635489,0.42183 1.29608,-0.78182 0.641885,-0.35435 0.541718,-0.30257 1.077714,-0.61842 1.647296,-0.86697 0.811135,-0.33639 1.651516,-0.58272 2.523413,-0.70453 0,0 0.38971,-0.29285 0.38971,-0.29285 z" />
    <text
       xml:space="preserve"
       style="font-style:normal;font-weight:normal;font-size:10.5833px;line-height:1.25;font-family:sans-serif;letter-spacing:0px;word-spacing:0px;fill:#000000;fill-opacity:1;stroke:none;stroke-width:0.264583"
       x="70.323715"
       y="205.98843"
       id="text38026"><tspan
         sodipodi:role="line"
         id="tspan38024"
         x="70.323715"
         y="205.98843"
         style="stroke-width:0.264583">MMS</tspan></text>
    <path
       style="opacity:0.590842;fill:#00ffff;stroke:#ff0000;stroke-width:2.98869"
       d="M 246.74029,265.17149 V 8.3237689 h 68.96837 68.96837 V 265.17149 522.01922 h -68.96837 -68.96837 z m 67.55561,41.32157 c 0.30259,-1.58193 -0.40193,-2.08094 -2.93797,-2.08094 h -3.33599 l 4.3531,-2.95801 c 4.42288,-3.00543 6.50328,-6.69051 5.07853,-8.99579 -1.26629,-2.0489 -6.76875,-3.69534 -9.80399,-2.93354 -3.92902,0.98612 -2.95375,4.5989 1.44835,5.36529 l 3.46767,0.60372 -5.26585,3.56733 c -2.89622,1.96204 -6.20228,3.95142 -7.34679,4.42085 -3.07402,1.26083 -2.65297,5.43994 0.59455,5.90116 5.81516,0.82589 13.34019,-0.75596 13.74839,-2.89007 z m 33.33644,-8.52868 c 6.10579,-3.09404 13.84737,-10.83393 15.69379,-15.69037 2.88752,-7.59477 0.0883,-14.7243 -5.78117,-14.7243 -3.74768,0 -12.84103,5.24867 -14.51618,8.37872 -2.00768,3.75138 1.63942,4.21064 6.21405,0.78252 7.94929,-5.95703 11.76348,-5.01923 9.90461,2.43525 -1.14428,4.58883 -11.42423,14.13958 -17.02543,15.81775 -7.57509,2.26955 -9.76581,0.35247 -9.76581,-8.54602 0,-6.12486 0.73423,-8.61981 4.88407,-16.59633 4.40896,-8.47458 5.16083,-9.31833 7.72921,-8.67371 2.44868,0.61458 2.84515,0.28771 2.84515,-2.34576 0,-1.86477 -0.94926,-3.56787 -2.43048,-4.36059 -2.04556,-1.09476 -2.9401,-0.75426 -5.64828,2.14994 -1.76978,1.89788 -5.22441,7.46293 -7.67695,12.36676 -3.87305,7.74412 -4.45916,10.00506 -4.45916,17.20124 0,8.47372 0.98499,10.92419 5.35099,13.31221 3.79928,2.07804 8.57354,1.58788 14.68159,-1.50731 z m -61.94844,-2.7508 c 0.2661,-0.80813 -0.88706,-2.09394 -2.56259,-2.85736 -4.11052,-1.87288 -5.17606,-7.68449 -2.4588,-13.41068 1.57039,-3.30936 3.9636,-5.31245 10.43814,-8.73666 9.71996,-5.14061 13.97663,-9.81594 11.57338,-12.71169 -0.83924,-1.01122 -3.36796,-1.83858 -5.61937,-1.83858 -3.35447,0 -5.15293,1.0877 -9.96184,6.02481 -3.22759,3.31366 -5.86834,6.51337 -5.86834,7.11049 0,0.9338 -8.39542,5.89046 -9.97706,5.89046 -0.3074,0 -0.0612,-1.73554 0.54718,-3.85676 2.49442,-8.69751 0.10649,-15.21299 -4.25036,-11.59712 -1.09315,0.90723 -1.65397,0.5989 -2.11461,-1.1626 -0.89667,-3.42888 -3.73955,-4.09907 -7.35076,-1.73291 -3.74475,2.45365 -3.52621,5.99477 0.34396,5.57339 1.48493,-0.16167 2.96889,0.49705 3.34854,1.48639 0.37498,0.9772 2.01954,1.77673 3.65457,1.77673 2.09644,0 2.77942,0.50388 2.31686,1.70929 -0.36076,0.94011 -1.2313,3.84609 -1.93455,6.45775 -0.92327,3.42876 -2.44671,5.47036 -5.4816,7.34603 -3.02764,1.87118 -4.10174,3.30746 -3.84095,5.13608 0.60657,4.25318 5.14855,3.86484 9.56411,-0.81773 2.13297,-2.26196 5.09933,-4.73438 6.59192,-5.49426 2.53973,-1.293 2.66481,-1.18645 1.95007,1.66131 -1.14119,4.54687 0.45986,11.04668 3.39451,13.78072 2.75779,2.56929 6.89165,2.71047 7.69759,0.2629 z"
       id="path42796"
       transform="scale(0.26458333)" />
  </g>
</svg>
